# xmcd
#
# Track frame offsets: 
#        150
#        16027
#        50222
#        81555
#        114790
#        147512
#
# Disc length: 2201 seconds
#
# Revision: 0
# Processed by: cddbd v1.5.2PL0 Copyright (c) Steve Scherf et al.
# Submitted via: ExactAudioCopy v0.99pb5
#
DISCID=4c089706
DTITLE=The Noizmakers Feat. V.E.G.A. - MAXI - Electro Boogie Encounter
DYEAR=1900
DGENRE=Alt. Rock
TTITLE0=Electro Boogie Encounter (Video Version)
TTITLE1=Electro Boogie Encounter (The Noizmakers Ext. Mix)
TTITLE2=Electro Boogie Encounter (Space Shuffle Remix)
TTITLE3=Electro Boogie Encounter (Pino and Wildjammin' Remix)
TTITLE4=Believe
TTITLE5=Electro Boogie Encounter (The Noizmakers Original Edit)
EXTD=
EXTT0=
EXTT1=
EXTT2=
EXTT3=
EXTT4=
EXTT5=
PLAYORDER=
